# xmcd
#
# Track frame offsets:
#	150
#	18923
#	36182
#	50010
#	70684
#	88861
#	104050
#	124591
#	144442
#
# Disc length: 2153 seconds
#
# Revision: 1
# Processed by: cddbd v1.4PL0 Copyright (c) Steve Scherf et al.
# Submitted via: audiograbber 1.81.01
#
DISCID=7a086709
DTITLE=Jeffrey Spence - Suspence
DYEAR=2002
DGENRE=R&B
TTITLE0=Seven Days A Week
TTITLE1=Friends
TTITLE2=More Money
TTITLE3=Sometimes When We Touch
TTITLE4=I Will Never Run Away
TTITLE5=I Never Dreamed You Would Leave In Summmer
TTITLE6=I Need A Honey
TTITLE7=Pull No Punches
TTITLE8=Mommy Is The Backbone
EXTD=
EXTT0=
EXTT1=
EXTT2=
EXTT3=
EXTT4=
EXTT5=
EXTT6=
EXTT7=
EXTT8=
PLAYORDER=
